# xmcd
#
# Track frame offsets: 
#        150
#        9987
#        18586
#        29220
#        36140
#        43228
#        50357
#        65553
#        70788
#        78851
#        89101
#        101887
#        116756
#        125794
#
# Disc length: 1774 seconds
#
# Revision: 0
# Processed by: cddbd v1.5.1PL0 Copyright (c) Steve Scherf et al.
# Submitted via: ExactAudioCopy v0.95a5
#
DISCID=ca06ec0e
DTITLE=Loren MazzaCane Connors - Lullaby
DYEAR=2001
DGENRE=Instrumental
TTITLE0=lullaby (The 1st)
TTITLE1=Whispers
TTITLE2=lullaby (The 2nd)
TTITLE3=lullaby (The 3rd)
TTITLE4=Want Me To Tell You (Why I Cried?)
TTITLE5=lullaby (The 4th)
TTITLE6="Don't Leave"
TTITLE7=I'm Scared (of the Dark
TTITLE8=and the shadows on the wall"
TTITLE9=lullaby (The last)
TTITLE10=Sleep...
TTITLE11=The Kis - a moment at the Door
TTITLE12=woven dreams
TTITLE13=Through the Stars
EXTD=
EXTT0=
EXTT1=
EXTT2=
EXTT3=
EXTT4=
EXTT5=
EXTT6=
EXTT7=
EXTT8=
EXTT9=
EXTT10=
EXTT11=
EXTT12=
EXTT13=
PLAYORDER=
